<?xml version="1.0" encoding="utf-8"?>
<!-- Generator: Adobe Illustrator 26.0.2, SVG Export Plug-In . SVG Version: 6.00 Build 0)  -->
<svg version="1.1" id="Layer_1" xmlns="http://www.w3.org/2000/svg" xmlns:xlink="http://www.w3.org/1999/xlink" x="0px" y="0px"
	 viewBox="0 0 400 130" style="enable-background:new 0 0 400 130;" xml:space="preserve">
<style type="text/css">
	.st0{fill:#343333;}
	.st1{opacity:0.75;fill:url(#SVGID_1_);enable-background:new    ;}
	.st2{fill:url(#SVGID_00000013899517955062335780000012395535692535041665_);}
</style>
<g>
	<path class="st0" d="M154.6,112.5c-2.5,3.2-5.6,5.6-9.4,7.4c-3.8,1.7-7.7,2.6-11.8,2.6c-3.9,0-7.5-0.6-10.9-1.9
		c-3.4-1.2-6.4-3-8.9-5.3c-2.5-2.3-4.5-5.1-6-8.3c-1.4-3.3-2.2-6.9-2.2-10.8c0-4,0.8-7.7,2.2-10.8c1.4-3.3,3.4-6,6-8.3
		c2.5-2.4,5.5-4.1,8.9-5.3c3.4-1.2,7.1-1.9,10.9-1.9c3.6,0,6.8,0.6,9.8,1.9c3,1.2,5.4,3,7.4,5.3c2,2.4,3.6,5.1,4.7,8.3
		c1.1,3.3,1.7,6.9,1.7,10.8v4.9h-36c0.6,3,2,5.3,4,7.1c2,1.7,4.6,2.7,7.7,2.7c2.6,0,4.7-0.6,6.4-1.7c1.7-1.1,3.3-2.6,4.6-4.4
		L154.6,112.5z M141.5,90.3c0.1-2.7-0.8-4.9-2.6-6.8c-1.8-1.9-4.1-2.8-7-2.8c-1.7,0-3.3,0.3-4.6,0.8c-1.3,0.5-2.4,1.3-3.3,2.1
		c-0.9,0.8-1.7,1.9-2.2,3c-0.5,1.1-0.8,2.4-0.9,3.6H141.5z"/>
	<path class="st0" d="M161.8,70.8h14.9v6.8h0.2c0.5-1,1.1-1.9,2-2.9s2-1.8,3.2-2.6s2.7-1.4,4.2-1.9c1.6-0.5,3.3-0.8,5.2-0.8
		c3.5,0,6.7,0.8,9.4,2.2c2.7,1.4,4.8,3.7,6.1,6.8c1.8-3.3,3.9-5.5,6.5-7c2.6-1.4,5.7-2,9.4-2c3.4,0,6.2,0.6,8.6,1.7
		c2.3,1.1,4.2,2.7,5.5,4.6c1.4,2,2.4,4.2,2.9,7c0.6,2.7,0.9,5.5,0.9,8.6v29.7h-15.6V91.8c0-2.4-0.5-4.4-1.5-6.1
		c-1-1.7-2.8-2.5-5.3-2.5c-1.8,0-3.3,0.3-4.5,0.9c-1.2,0.6-2.2,1.4-2.9,2.4c-0.8,1.1-1.2,2.3-1.5,3.6c-0.3,1.4-0.5,2.8-0.5,4.3v26.6
		h-15.6V94.6c0-0.9,0-2-0.1-3.3c-0.1-1.3-0.3-2.6-0.8-3.7c-0.4-1.1-1.1-2.2-2-3c-0.9-0.8-2.3-1.2-4.1-1.2c-2,0-3.6,0.4-4.9,1.1
		c-1.2,0.8-2.2,1.7-2.9,2.9c-0.7,1.2-1.1,2.6-1.3,4.1c-0.2,1.5-0.3,3.1-0.3,4.8v25.1h-15.6L161.8,70.8L161.8,70.8z"/>
	<path class="st0" d="M247.1,42.8h15.6v33.4h0.2c1.8-2.4,4.1-4.1,6.9-5.2c2.8-1,5.8-1.5,9.1-1.5c3.6,0,6.8,0.8,9.6,2.2
		c2.8,1.5,5.2,3.5,7.2,6c2,2.5,3.5,5.3,4.6,8.6c1.1,3.2,1.6,6.6,1.6,10.1c0,3.8-0.6,7.3-1.7,10.5c-1.1,3.2-2.9,5.9-5,8.3
		c-2.2,2.4-4.8,4.1-7.8,5.4c-3,1.3-6.4,1.9-10.2,1.9c-1.8,0-3.5-0.2-5.1-0.8c-1.6-0.5-3-1.1-4.4-1.9s-2.5-1.6-3.5-2.5
		c-1-0.9-1.8-1.8-2.4-2.7h-0.2v6.6h-14.3L247.1,42.8L247.1,42.8z M261.3,96c0,3.8,1.1,6.9,3.3,9.3c2.2,2.4,5.2,3.5,9.2,3.5
		s7-1.1,9.2-3.5c2.2-2.4,3.3-5.4,3.3-9.3c0-3.8-1.1-6.9-3.3-9.3c-2.2-2.4-5.2-3.5-9.2-3.5s-7,1.1-9.2,3.5
		C262.5,89.1,261.3,92.2,261.3,96z"/>
	<path class="st0" d="M354.4,112.5c-2.5,3.2-5.6,5.6-9.4,7.4c-3.8,1.7-7.7,2.6-11.8,2.6c-3.9,0-7.5-0.6-10.9-1.9
		c-3.4-1.2-6.4-3-8.9-5.3c-2.5-2.3-4.5-5.1-6-8.3c-1.4-3.3-2.2-6.9-2.2-10.8c0-4,0.8-7.7,2.2-10.8c1.4-3.3,3.4-6,6-8.3
		c2.5-2.4,5.5-4.1,8.9-5.3c3.4-1.2,7.1-1.9,10.9-1.9c3.6,0,6.8,0.6,9.8,1.9c3,1.2,5.4,3,7.4,5.3c2,2.4,3.6,5.1,4.7,8.3
		c1.1,3.3,1.7,6.9,1.7,10.8v4.9h-36c0.6,3,2,5.3,4,7.1c2,1.7,4.6,2.7,7.7,2.7c2.6,0,4.7-0.6,6.4-1.7c1.7-1.1,3.3-2.6,4.6-4.4
		L354.4,112.5z M341.2,90.3c0.1-2.7-0.8-4.9-2.6-6.8c-1.8-1.9-4.1-2.8-7-2.8c-1.7,0-3.3,0.3-4.6,0.8c-1.3,0.5-2.4,1.3-3.3,2.1
		s-1.7,1.9-2.2,3c-0.5,1.1-0.8,2.4-0.9,3.6H341.2z"/>
	<path class="st0" d="M359.8,70.8h15.6v8.1h0.2c1.7-3.1,3.6-5.5,5.9-7c2.3-1.5,5.2-2.4,8.6-2.4c0.9,0,1.8,0,2.7,0.1
		c0.9,0.1,1.7,0.2,2.5,0.4v14.2c-1.1-0.4-2.2-0.6-3.3-0.8c-1.1-0.2-2.2-0.2-3.3-0.2c-3,0-5.3,0.4-7.1,1.2c-1.7,0.8-3,2-4,3.5
		c-0.9,1.5-1.5,3.3-1.8,5.3c-0.3,2-0.4,4.3-0.4,6.8v21.1h-15.6L359.8,70.8L359.8,70.8z"/>
	
		<linearGradient id="SVGID_1_" gradientUnits="userSpaceOnUse" x1="4.6768" y1="67.1173" x2="95.4913" y2="67.1173" gradientTransform="matrix(1 0 0 -1 0 131.7)">
		<stop  offset="0" style="stop-color:#CC3333"/>
		<stop  offset="0.9992" style="stop-color:#F9ED32"/>
	</linearGradient>
	<path class="st1" d="M84.4,47.3L50.3,7.8c-0.1-0.1-0.2-0.2-0.2-0.2l0,0c-0.1,0-0.2,0.1-0.2,0.2c-0.3,0.3-27.4,31.5-34.2,39.6
		C8.5,55.9,4.7,66.2,4.7,76.9c0,16.8,9.3,32.2,24.2,40.1c3.6,1.9,7.4,3.3,11.5,4.2l1.5,0.3c0.2,0,0.4-0.1,0.4-0.2
		c0.1-0.2-0.1-0.4-0.2-0.4c-1.7-0.6-3.3-1.5-4.9-2.5c-8.1-4.6-13.2-13.2-13.3-22.6c0-0.3,0-0.6,0-0.9v-0.4c0-0.3,0.1-0.6,0.1-0.8
		l0.1-0.5c0-0.3,0.1-0.5,0.1-0.8l0.1-0.4c0.1-0.4,0.2-0.8,0.2-1.2c0.1-0.4,0.2-0.8,0.3-1.1l0.1-0.4c0.1-0.3,0.2-0.5,0.2-0.8
		c0.1-0.2,0.1-0.2,0.2-0.4c0.1-0.2,0.2-0.5,0.2-0.8l0.2-0.4c0.2-0.4,0.3-0.7,0.5-1.1c0.2-0.4,0.3-0.7,0.5-1.1l0.2-0.3
		c0.2-0.2,0.2-0.5,0.4-0.8l0.2-0.4c0.2-0.2,0.2-0.5,0.4-0.7l0.2-0.3c0.2-0.3,0.4-0.6,0.6-0.9l-0.3-0.2l0.3,0.2
		c0.2-0.3,0.4-0.5,0.6-0.8l0.1-0.1c0.7-1,1.5-1.9,2.4-2.7L50,55.6c2,2.4,15.2,17.5,20,23.5c0.4,0.5,0.8,0.9,1.1,1.4l0.1,0.1
		c3,3.9,4.8,8.8,5,14v0.2c0,0.3,0,0.6,0,1c-0.2,9.4-5.2,18.1-13.4,22.6c-1.5,1.1-3.1,1.9-4.9,2.5c-0.2,0.1-0.2,0.2-0.2,0.4
		c0.1,0.2,0.2,0.2,0.3,0.2h0.1l1.5-0.3c4-0.9,7.9-2.3,11.5-4.2c14.9-7.9,24.2-23.3,24.2-40.1C95.5,66.1,91.5,55.6,84.4,47.3z"/>
	
		<linearGradient id="SVGID_00000083052584521258734800000012356478966384417668_" gradientUnits="userSpaceOnUse" x1="4.3524" y1="75.2888" x2="69.2722" y2="44.5588" gradientTransform="matrix(1 0 0 -1 0 131.7)">
		<stop  offset="5.283264e-04" style="stop-color:#CC3333"/>
		<stop  offset="0.1439" style="stop-color:#D04F34"/>
		<stop  offset="0.4547" style="stop-color:#DB8438"/>
		<stop  offset="0.9059" style="stop-color:#F2D736"/>
		<stop  offset="1" style="stop-color:#F9ED32"/>
	</linearGradient>
	<path style="fill:url(#SVGID_00000083052584521258734800000012356478966384417668_);" d="M58.4,121.5c-0.2,0-0.3-0.1-0.3-0.2
		c-0.1-0.2,0.1-0.4,0.2-0.4c1.1-0.4,2.1-0.9,3.1-1.4c1-0.5,2.9-1.9,2.9-1.9c0.8-0.7,1.7-1.4,2.4-2.2l0.1-0.1c0.8-0.8,1.4-1.7,2-2.5
		l0.1-0.2c0.3-0.5,0.6-0.9,0.8-1.4v-0.1v-0.1c0.2-0.4,0.5-0.8,0.7-1.3l0.1-0.2c0.2-0.5,0.5-0.9,0.6-1.4l0.1-0.2
		c0.2-0.5,0.3-0.9,0.5-1.3l0.1-0.2c0.2-0.5,0.3-1,0.4-1.5l0.1-0.3c0.2-0.5,0.2-1,0.3-1.4V103c0.1-0.5,0.2-1,0.2-1.6v-0.4
		c0.1-0.6,0.1-1.1,0.1-1.6v-0.3v-0.4c0-0.4,0-0.8,0-1.1v-0.2c0-0.3-0.1-0.7-0.1-1c-0.5-4.5-2.1-8.6-4.8-11.8L67.4,84
		C63.3,79.1,51.8,65.9,50,63.7L31.8,84.9l-0.2,0.2c-0.2,0.2-0.3,0.4-0.4,0.5L31,86c-0.2,0.3-0.4,0.5-0.5,0.8
		c-0.2,0.3-0.4,0.6-0.5,0.9L29.8,88c-0.1,0.2-0.2,0.5-0.3,0.6l-0.2,0.3c-0.2,0.2-0.2,0.5-0.3,0.7L28.9,90c-0.1,0.2-0.2,0.4-0.2,0.6
		L28.5,91c-0.1,0.2-0.2,0.5-0.2,0.8L28.2,92c-0.1,0.3-0.2,0.7-0.3,1l-0.1,0.2c-0.1,0.2-0.2,0.5-0.2,0.8l-0.1,0.4
		c-0.1,0.2-0.1,0.5-0.2,0.7c0,0.2-0.1,0.3-0.1,0.4c0,0.2-0.1,0.5-0.1,0.7c0,0.2,0,0.3-0.1,0.4c0,0.2-0.1,0.5-0.1,0.8v0.4
		c0,0.4,0,0.8,0,1.1V99v0.4c0,0.5,0,1,0.1,1.6v0.4c0.1,0.6,0.1,1.1,0.2,1.6v0.2c0.1,0.5,0.2,0.9,0.3,1.4l0.1,0.3
		c0.2,0.5,0.3,1,0.4,1.5l0.1,0.2c0.2,0.5,0.3,0.9,0.5,1.4l0.1,0.2c0.2,0.5,0.4,1,0.6,1.4l0.1,0.2c0.2,0.5,0.5,0.9,0.7,1.3v0.1
		l0.1,0.1c0.2,0.5,0.5,0.9,0.8,1.3l0.1,0.2c0.6,0.9,1.3,1.7,2,2.5l0.1,0.1c0.8,0.8,2.5,2.3,2.5,2.3c0.9,0.7,1.8,1.3,2.7,1.8
		c1,0.6,2,1.1,3.1,1.4c0.2,0.1,0.2,0.2,0.2,0.4c-0.1,0.2-0.2,0.3-0.4,0.2c-17.4-3.6-30.1-18.4-30.1-35c0-8,2.9-15.9,8.2-22.1
		c11.5-13.5,29.9-34.6,30-34.8c0.1-0.1,0.2-0.2,0.2-0.2l0,0c0.1,0,0.2,0.1,0.2,0.2c0.2,0.3,25.2,29.2,30,34.7
		c5.3,6.1,8.3,14,8.3,22.2C88.5,103.2,75.8,117.9,58.4,121.5L58.4,121.5z"/>
</g>
</svg>
